<svg xmlns="http://www.w3.org/2000/svg" width="19.688" height="22.5" viewBox="0 0 19.688 22.5">
  <path id="Icon_awesome-calculator" data-name="Icon awesome-calculator" d="M17.578,0H2.109A2.163,2.163,0,0,0,0,2.109V20.391A2.163,2.163,0,0,0,2.109,22.5H17.578a2.163,2.163,0,0,0,2.109-2.109V2.109A2.163,2.163,0,0,0,17.578,0ZM5.625,19.125a.6.6,0,0,1-.562.563H3.375a.6.6,0,0,1-.562-.562V17.438a.6.6,0,0,1,.563-.562H5.063a.6.6,0,0,1,.563.563Zm0-5.625a.6.6,0,0,1-.562.563H3.375a.6.6,0,0,1-.562-.562V11.813a.6.6,0,0,1,.563-.562H5.063a.6.6,0,0,1,.563.563Zm5.625,5.625a.6.6,0,0,1-.562.563H9a.6.6,0,0,1-.562-.562V17.438A.6.6,0,0,1,9,16.875h1.688a.6.6,0,0,1,.563.563Zm0-5.625a.6.6,0,0,1-.562.563H9a.6.6,0,0,1-.562-.562V11.813A.6.6,0,0,1,9,11.25h1.688a.6.6,0,0,1,.563.563Zm5.625,5.625a.6.6,0,0,1-.562.563H14.625a.6.6,0,0,1-.562-.562V11.813a.6.6,0,0,1,.563-.562h1.688a.6.6,0,0,1,.563.563Zm0-11.25a.6.6,0,0,1-.562.563H3.375a.6.6,0,0,1-.562-.562v-4.5a.6.6,0,0,1,.563-.562H16.313a.6.6,0,0,1,.563.563Z" fill="#858585"/>
</svg>
