<svg xmlns="http://www.w3.org/2000/svg" width="33.386" height="34.875" viewBox="0 0 33.386 34.875">
  <path id="Icon_awesome-cog" data-name="Icon awesome-cog" d="M34.27,22.2l-3-1.73a13.544,13.544,0,0,0,0-4.936l3-1.73a.85.85,0,0,0,.387-.984,17.512,17.512,0,0,0-3.846-6.652A.846.846,0,0,0,29.77,6l-3,1.73A13.27,13.27,0,0,0,22.5,5.266V1.814a.842.842,0,0,0-.661-.823,17.676,17.676,0,0,0-7.678,0,.842.842,0,0,0-.661.823V5.273A13.688,13.688,0,0,0,9.225,7.741L6.237,6.012A.835.835,0,0,0,5.2,6.173,17.407,17.407,0,0,0,1.35,12.825a.841.841,0,0,0,.387.984l3,1.73a13.544,13.544,0,0,0,0,4.936l-3,1.73a.85.85,0,0,0-.387.984A17.512,17.512,0,0,0,5.2,29.841.846.846,0,0,0,6.237,30l3-1.73a13.27,13.27,0,0,0,4.275,2.468V34.2a.842.842,0,0,0,.661.823,17.676,17.676,0,0,0,7.678,0,.842.842,0,0,0,.661-.823V30.741a13.688,13.688,0,0,0,4.275-2.468l3,1.73a.835.835,0,0,0,1.041-.162,17.407,17.407,0,0,0,3.846-6.652.868.868,0,0,0-.394-.991ZM18,23.625A5.625,5.625,0,1,1,23.625,18,5.632,5.632,0,0,1,18,23.625Z" transform="translate(-1.311 -0.569)" fill="#858585"/>
</svg>
