<svg xmlns="http://www.w3.org/2000/svg" width="17.776" height="17.776" viewBox="0 0 17.776 17.776">
  <path id="Icon_ionic-ios-list-box" data-name="Icon ionic-ios-list-box" d="M3.375,4.857V19.668a1.483,1.483,0,0,0,1.482,1.482H19.668a1.483,1.483,0,0,0,1.482-1.482V4.857a1.483,1.483,0,0,0-1.482-1.482H4.857A1.48,1.48,0,0,0,3.375,4.857ZM7.19,17.549a.853.853,0,1,1,.735-.735A.85.85,0,0,1,7.19,17.549Zm0-4.443a.853.853,0,1,1,.735-.735A.85.85,0,0,1,7.19,13.107Zm0-4.443a.853.853,0,1,1,.735-.735A.85.85,0,0,1,7.19,8.664ZM17.759,17.3h-7.69a.6.6,0,0,1-.6-.6h0a.6.6,0,0,1,.6-.6h7.69a.6.6,0,0,1,.6.6h0A.6.6,0,0,1,17.759,17.3Zm0-4.443h-7.69a.6.6,0,0,1-.6-.6h0a.6.6,0,0,1,.6-.6h7.69a.6.6,0,0,1,.6.6h0A.6.6,0,0,1,17.759,12.859Zm0-4.443h-7.69a.6.6,0,0,1-.6-.6h0a.6.6,0,0,1,.6-.6h7.69a.6.6,0,0,1,.6.6h0A.6.6,0,0,1,17.759,8.416Z" transform="translate(-3.375 -3.375)" fill="#858585"/>
</svg>
