<svg xmlns="http://www.w3.org/2000/svg" width="118.304" height="115.036" viewBox="0 0 118.304 115.036">
  <path id="Icon_metro-chart-bars2" data-name="Icon metro-chart-bars2" d="M34.075,38.652H8.724A4.18,4.18,0,0,0,4.5,42.76v73.952a4.18,4.18,0,0,0,4.225,4.108H34.075a4.18,4.18,0,0,0,4.225-4.108V42.76A4.18,4.18,0,0,0,34.075,38.652Zm0,73.952H8.724V79.736H34.075ZM76.326,22.218H50.975a4.18,4.18,0,0,0-4.225,4.108v90.385a4.18,4.18,0,0,0,4.225,4.108H76.326a4.18,4.18,0,0,0,4.225-4.108V26.326a4.18,4.18,0,0,0-4.225-4.108Zm0,90.385H50.975V71.519H76.326ZM118.577,5.784H93.226A4.18,4.18,0,0,0,89,9.893V116.712a4.18,4.18,0,0,0,4.225,4.108h25.351a4.18,4.18,0,0,0,4.225-4.108V9.893a4.18,4.18,0,0,0-4.225-4.108Zm0,106.819H93.226V63.3h25.351Z" transform="translate(-4.499 -5.784)" fill="#fff"/>
</svg>
