<svg xmlns="http://www.w3.org/2000/svg" width="21.892" height="19.357" viewBox="0 0 21.892 19.357">
  <path id="Icon_awesome-home" data-name="Icon awesome-home" d="M10.655,7.275,3.648,13.837v7.082a.654.654,0,0,0,.608.691L8.515,21.6a.654.654,0,0,0,.605-.691V16.771a.654.654,0,0,1,.608-.691H12.16a.654.654,0,0,1,.608.691V20.9a.743.743,0,0,0,.177.49.574.574,0,0,0,.431.2l4.257.013a.654.654,0,0,0,.608-.691V13.832L11.236,7.275A.421.421,0,0,0,10.655,7.275Zm11.068,4.46L18.546,8.757V2.772a.49.49,0,0,0-.456-.519H15.961a.49.49,0,0,0-.456.519V5.91L12.1,2.727a1.658,1.658,0,0,0-2.318,0L.164,11.735a.569.569,0,0,0-.061.73l.969,1.34a.443.443,0,0,0,.308.187.42.42,0,0,0,.334-.116L10.655,5.5a.421.421,0,0,1,.581,0l8.94,8.372a.42.42,0,0,0,.642-.069l.969-1.34a.568.568,0,0,0,.1-.381.542.542,0,0,0-.166-.351Z" transform="translate(0.001 -2.254)" fill="#858585"/>
</svg>
