<svg xmlns="http://www.w3.org/2000/svg" width="25.12" height="25.12" viewBox="0 0 25.12 25.12">
  <path id="Icon_awesome-pencil-alt" data-name="Icon awesome-pencil-alt" d="M24.43,6.974,22.168,9.235a.589.589,0,0,1-.834,0L15.887,3.789a.589.589,0,0,1,0-.834L18.149.693a2.36,2.36,0,0,1,3.331,0L24.43,3.642A2.351,2.351,0,0,1,24.43,6.974ZM13.945,4.9,1.06,17.782.02,23.744a1.179,1.179,0,0,0,1.364,1.364l5.961-1.045L20.23,11.178a.589.589,0,0,0,0-.834L14.784,4.9a.6.6,0,0,0-.839,0ZM6.089,16.679a.684.684,0,0,1,0-.971l7.556-7.556a.687.687,0,0,1,.971.971L7.061,16.679a.684.684,0,0,1-.971,0ZM4.318,20.8H6.673v1.781l-3.165.554L1.983,21.614l.554-3.165H4.318Z" transform="translate(-0.002 -0.005)"  fill="#858585"/>
</svg>
