<svg xmlns="http://www.w3.org/2000/svg" width="28.626" height="17.176" viewBox="0 0 28.626 17.176">
  <path id="Icon_awesome-money-bill-alt" data-name="Icon awesome-money-bill-alt" d="M15.745,14.519h-.716V10.583a.358.358,0,0,0-.358-.358h-.607a1.072,1.072,0,0,0-.6.18l-.686.457a.358.358,0,0,0-.1.5l.4.6a.358.358,0,0,0,.5.1l.021-.014v2.48h-.716a.358.358,0,0,0-.358.358v.716a.358.358,0,0,0,.358.358h2.863a.358.358,0,0,0,.358-.358v-.716A.358.358,0,0,0,15.745,14.519ZM27.2,4.5H1.431A1.431,1.431,0,0,0,0,5.931V20.245a1.431,1.431,0,0,0,1.431,1.431H27.2a1.431,1.431,0,0,0,1.431-1.431V5.931A1.431,1.431,0,0,0,27.2,4.5ZM2.147,19.529V16.666A2.862,2.862,0,0,1,5.01,19.529Zm0-10.019V6.647H5.01A2.862,2.862,0,0,1,2.147,9.51ZM14.313,18.1c-2.372,0-4.294-2.243-4.294-5.01s1.922-5.01,4.294-5.01,4.294,2.243,4.294,5.01S16.684,18.1,14.313,18.1Zm12.166,1.431H23.617a2.862,2.862,0,0,1,2.863-2.863Zm0-10.019a2.862,2.862,0,0,1-2.863-2.863h2.863Z" transform="translate(0 -4.5)" fill="#858585"/>
</svg>
