<svg xmlns="http://www.w3.org/2000/svg" color="white" width="26.471" height="36" viewBox="0 0 26.471 36">
  <path id="Icon_awesome-btc" data-name="Icon awesome-btc" d="M21.811,17.06a5.273,5.273,0,0,0,2.9-5.716c-.377-4.032-3.688-5.384-8.075-5.761V0H13.226V5.428c-.886,0-1.795.022-2.7.044V0H7.111V5.583c-1.255.038-2.716.019-6.846,0V9.217C2.959,9.169,4.372,9,4.7,10.724V26.012c-.206,1.371-1.3,1.173-3.744,1.13L.265,31.2c6.221,0,6.846.022,6.846.022V36h3.412V31.285c.931.022,1.839.022,2.7.022V36h3.412V31.218c5.716-.31,9.538-1.75,10.047-7.134C27.084,19.764,25.046,17.836,21.811,17.06ZM10.59,9.461c1.928,0,7.954-.6,7.954,3.412,0,3.833-6.026,3.39-7.954,3.39v-6.8Zm0,17.7V19.675c2.3,0,9.36-.643,9.36,3.744C19.95,27.651,12.894,27.164,10.59,27.164Z"  transform="translate(-0.265)"/>
</svg>
