<svg xmlns="http://www.w3.org/2000/svg" width="170.19" height="148.327" viewBox="0 0 170.19 148.327">
  <path id="Icon_metro-chart-line" data-name="Icon metro-chart-line" d="M165.655,138.549H151.487v-6.193h-7.105v6.193H130.235v-6.193h-7.105v6.193H108.961v-6.193h-7.105v6.193H87.687v-6.193H80.582v6.193H66.413v-6.193H59.308v6.193H28.1L65.47,118.976,83.964,71.87l27.472,42.082,53.234-77.3-12.155-6.366L111.762,89.466,80.731,41.933,53.72,110.707,16.739,130.076V2.571H2.571V150.9h170.19V132.357h-7.105Zm0-135.979h7.105V8.763h-7.105Zm-21.274,0h7.105V8.763h-7.105Zm-21.253,0h7.105V8.763h-7.105Zm-21.274,0h7.105V8.763h-7.105Zm-21.274,0h7.105V8.763H80.582Zm-21.274,0h7.105V8.763H59.308Zm-21.274,0h7.105V8.763H38.034Zm-21.274,0h7.105V8.763H16.76Zm148.9,18.541h7.105V27.3h-7.105Zm-21.274,0h7.105V27.3h-7.105Zm-21.253,0h7.105V27.3h-7.105Zm-21.274,0h7.105V27.3h-7.105Zm-21.274,0h7.105V27.3H80.582Zm-21.274,0h7.105V27.3H59.308Zm-21.274,0h7.105V27.3H38.034Zm-21.274,0h7.105V27.3H16.76Zm148.9,18.522h7.105v6.193h-7.105Zm-42.526,0h7.105v6.193h-7.105Zm-21.274,0h7.105v6.193h-7.105Zm-42.548,0h7.105v6.193H59.308Zm-21.274,0h7.105v6.193H38.034Zm-21.274,0h7.105v6.193H16.76Zm148.9,18.541h7.105v6.193h-7.105Zm-63.8,0h7.105v6.193h-7.105Zm-42.548,0h7.105v6.193H59.308Zm-21.274,0h7.105v6.193H38.034Zm-21.274,0h7.105v6.193H16.76Zm148.9,18.553h7.105v6.193h-7.105Zm-21.274,0h7.105v6.193h-7.105Zm-106.348,0h7.105v6.193H38.034Zm-21.274,0h7.105v6.193H16.76Zm148.9,18.541h7.105v6.193h-7.105Zm-21.274,0h7.105v6.193h-7.105Zm-63.8,0h7.105v6.193H80.582Zm-42.548,0h7.105v6.193H38.034Zm-21.274,0h7.105v6.193H16.76Zm148.9,18.522h7.105v6.193h-7.105Zm-21.274,0h7.105v6.193h-7.105Zm-21.253,0h7.105v6.193h-7.105Zm-42.548,0h7.105v6.193H80.582Zm-63.821,0h7.105v6.193H16.76Z" transform="translate(-2.571 -2.571)" fill="#fff"/>
</svg>
