<svg xmlns="http://www.w3.org/2000/svg" width="19.25" height="19.25" viewBox="0 0 19.25 19.25">
  <path id="Icon_metro-chart-dots" data-name="Icon metro-chart-dots" d="M4.977,18.772H21.821v2.406H2.571V1.928H4.977Zm3.008-1.2a1.8,1.8,0,1,1,0-3.609c.053,0,.106,0,.158.007l1.94-3.233a1.8,1.8,0,1,1,3.024,0l1.94,3.233q.079-.007.158-.007c.04,0,.08,0,.119,0l3.2-5.6a1.8,1.8,0,1,1,1.491.787c-.04,0-.08,0-.119,0l-3.2,5.6a1.8,1.8,0,1,1-3,.032l-1.94-3.233c-.052,0-.1.007-.158.007s-.106,0-.158-.007L9.5,14.779a1.8,1.8,0,0,1-1.512,2.79Z" transform="translate(-2.571 -1.928)" fill="#858585"/>
</svg>
