<svg xmlns="http://www.w3.org/2000/svg" width="235.216" height="212.693" viewBox="0 0 235.216 212.693">
  <path id="Icon_awesome-chart-pie" data-name="Icon awesome-chart-pie" d="M228.207,119.64h-102.6l68.329,65.649a7.144,7.144,0,0,0,9.595.282,98.273,98.273,0,0,0,31.62-58.516c.579-3.93-2.815-7.415-6.944-7.415ZM221.363,92.72C217.8,43.094,176.525,3.438,124.873.015a6.838,6.838,0,0,0-7.264,6.73V99.7h96.754c3.952,0,7.273-3.19,7-6.979ZM96.854,119.64V21.065a6.831,6.831,0,0,0-7.714-6.672C37.614,21.389-1.772,64.638.061,116.47c1.885,53.232,49.59,96.884,105.021,96.215a105.821,105.821,0,0,0,58.484-18.291,6.437,6.437,0,0,0,.679-10Z" transform="translate(0 0)" fill="#fff"/>
</svg>
