<svg xmlns="http://www.w3.org/2000/svg" width="62.659" height="48.741" viewBox="0 0 62.659 48.741">
  <path id="Icon_awesome-chart-line" data-name="Icon awesome-chart-line" d="M60.7,45.117H7.832V6.531A2,2,0,0,0,5.874,4.5H1.958A2,2,0,0,0,0,6.531V49.179a3.991,3.991,0,0,0,3.916,4.062H60.7a2,2,0,0,0,1.958-2.031V47.148A2,2,0,0,0,60.7,45.117ZM56.785,8.562H42.336a3.062,3.062,0,0,0-2.077,5.2l3.965,4.113-8.979,9.314-8.979-9.313a3.816,3.816,0,0,0-5.538,0l-8.406,8.719a2.085,2.085,0,0,0,0,2.872l2.768,2.871a1.909,1.909,0,0,0,2.769,0L23.5,26.491,32.476,35.8a3.816,3.816,0,0,0,5.538,0L49.762,23.618l3.965,4.113a2.925,2.925,0,0,0,5.014-2.154V10.593A1.993,1.993,0,0,0,56.785,8.562Z" transform="translate(0 -4.5)" fill="#00a8ff"/>
</svg>
