<?xml version="1.0" standalone="no"?>
<!DOCTYPE svg PUBLIC "-//W3C//DTD SVG 20010904//EN"
 "http://www.w3.org/TR/2001/REC-SVG-20010904/DTD/svg10.dtd">
<svg version="1.0" xmlns="http://www.w3.org/2000/svg"
 width="1008.000000pt" height="1008.000000pt" viewBox="0 0 1008.000000 1008.000000"
 preserveAspectRatio="xMidYMid meet">
<metadata>
Created by potrace 1.14, written by Peter Selinger 2001-2017
</metadata>
<g transform="translate(0.000000,1008.000000) scale(0.100000,-0.100000)"
fill="#000000" stroke="none">
<path d="M194 8931 c-71 -33 -132 -91 -165 -158 l-24 -48 -2 -3515 c-3 -3870
-7 -3575 60 -3721 42 -89 53 -104 139 -190 70 -69 201 -145 269 -156 18 -2 43
-9 56 -14 24 -9 9279 -7 9318 2 61 14 185 112 185 145 0 8 4 14 8 14 5 0 16
23 25 51 15 44 17 106 16 450 0 241 -4 399 -10 399 -5 0 -8 3 -7 8 4 14 -41
98 -70 128 -27 29 -97 71 -147 90 -11 5 -1946 8 -4300 9 l-4280 1 -5 92 c-3
50 -3 101 0 112 3 11 3 65 0 120 -3 55 -3 109 0 120 3 11 3 65 0 120 -3 55 -3
109 0 120 3 11 3 65 0 120 -3 55 -3 109 0 120 3 11 3 65 0 120 -3 55 -3 109 0
120 3 11 3 65 0 120 -3 55 -3 109 0 120 3 11 3 65 0 120 -3 55 -3 109 0 120 3
11 3 65 0 120 -3 55 -3 109 0 120 3 11 3 65 0 120 -3 55 -3 109 0 120 3 11 3
65 0 120 -3 55 -3 109 0 120 3 12 3 390 0 840 -3 450 -3 828 0 840 3 11 3 65
0 120 -3 55 -3 109 0 120 3 11 3 65 0 120 -3 55 -3 109 0 120 3 11 3 65 0 120
-3 55 -3 109 0 120 3 11 3 65 0 120 -3 55 -3 109 0 120 3 11 3 65 0 120 -3 55
-3 109 0 120 3 11 3 65 0 120 -3 55 -3 109 0 120 3 11 3 65 0 120 -3 55 -3
109 0 120 3 11 3 65 0 120 -3 55 -3 109 0 120 3 11 3 66 0 121 -3 55 -2 111 2
124 3 14 3 27 -1 30 -5 2 -8 18 -9 35 -2 61 -69 163 -137 207 -79 51 -92 53
-489 52 l-371 0 -61 -28z"/>
<path d="M6767 8304 c-1 -1 -15 -4 -32 -7 -91 -15 -185 -67 -258 -141 -50 -51
-117 -164 -117 -197 0 -9 -3 -19 -7 -23 -21 -21 -17 -226 7 -276 35 -75 57
-118 70 -135 17 -21 114 -125 235 -250 256 -265 440 -458 443 -464 1 -4 -54
-65 -123 -136 -69 -71 -125 -129 -125 -130 0 -1 -46 -49 -102 -107 -101 -103
-385 -398 -581 -601 -54 -56 -180 -187 -282 -292 -101 -104 -192 -200 -203
-213 l-20 -23 -66 68 c-36 37 -110 114 -164 169 -53 56 -192 200 -308 320
-117 121 -235 244 -264 274 -480 502 -735 760 -753 760 -9 0 -17 3 -19 8 -4
10 -106 58 -143 67 -16 4 -39 9 -50 12 -11 3 -62 7 -112 8 -89 2 -180 -12
-233 -36 -74 -33 -96 -45 -108 -56 -7 -7 -18 -13 -23 -13 -12 0 -179 -168
-469 -469 -107 -112 -235 -245 -285 -296 -49 -51 -169 -175 -265 -275 -96
-100 -237 -246 -313 -323 -172 -178 -202 -230 -202 -352 0 -87 18 -144 63
-200 22 -27 312 -332 439 -460 28 -29 65 -62 82 -74 77 -55 187 -67 285 -31
50 19 75 39 177 144 145 148 379 390 379 392 0 1 46 49 103 106 56 58 159 165
230 237 l127 133 68 -70 c37 -38 166 -171 287 -297 121 -125 243 -251 270
-280 63 -65 271 -281 535 -555 301 -312 340 -350 398 -387 192 -123 445 -130
639 -16 74 43 105 72 433 414 102 105 223 232 270 280 47 48 166 172 265 275
99 102 227 235 285 295 58 60 182 188 275 285 431 447 471 488 489 503 13 11
26 2 86 -61 38 -40 70 -77 70 -81 0 -5 4 -6 9 -3 5 4 11 1 13 -4 3 -11 205
-223 413 -435 130 -131 195 -173 302 -193 64 -11 203 -6 217 8 5 5 18 10 27
10 31 0 129 61 180 111 27 27 49 51 49 54 0 3 9 18 20 33 11 15 31 59 45 97
l24 70 1 1282 0 1283 -21 57 c-12 31 -32 67 -44 79 -13 13 -22 24 -20 26 2 2
-17 18 -41 37 -91 69 0 65 -1342 66 -666 1 -1213 1 -1215 -1z"/>
</g>
</svg>
